<?xml version="1.0" encoding="utf-8" standalone="no"?>
<!DOCTYPE svg PUBLIC "-//W3C//DTD SVG 1.1//EN"
  "http://www.w3.org/Graphics/SVG/1.1/DTD/svg11.dtd">
<svg xmlns:xlink="http://www.w3.org/1999/xlink" width="980.546076pt" height="450.24pt" viewBox="0 0 980.546076 450.24" xmlns="http://www.w3.org/2000/svg" version="1.1">
 <metadata>
  <rdf:RDF xmlns:dc="http://purl.org/dc/elements/1.1/" xmlns:cc="http://creativecommons.org/ns#" xmlns:rdf="http://www.w3.org/1999/02/22-rdf-syntax-ns#">
   <cc:Work>
    <dc:type rdf:resource="http://purl.org/dc/dcmitype/StillImage"/>
    <dc:date>2026-04-06T12:16:14.051028</dc:date>
    <dc:format>image/svg+xml</dc:format>
    <dc:creator>
     <cc:Agent>
      <dc:title>Matplotlib v3.10.8, https://matplotlib.org/</dc:title>
     </cc:Agent>
    </dc:creator>
   </cc:Work>
  </rdf:RDF>
 </metadata>
 <defs>
  <style type="text/css">*{stroke-linejoin: round; stroke-linecap: butt}</style>
 </defs>
 <g id="figure_1">
  <g id="patch_1">
   <path d="M 0 450.24 
L 980.546076 450.24 
L 980.546076 0 
L 0 0 
z
" style="fill: #ffffff"/>
  </g>
  <g id="axes_1">
   <g id="patch_2">
    <path d="M 86.069766 405.839687 
L 482.069766 405.839687 
L 482.069766 47.279687 
L 86.069766 47.279687 
z
" style="fill: #fbfbfd"/>
   </g>
   <g id="matplotlib.axis_1">
    <g id="xtick_1">
     <g id="line2d_1">
      <path d="M 97.913876 405.839687 
L 97.913876 47.279687 
" clip-path="url(#p405c5b3995)" style="fill: none; stroke-dasharray: 2.035,0.88; stroke-dashoffset: 0; stroke: #e5e7eb; stroke-opacity: 0.35; stroke-width: 0.55"/>
     </g>
     <g id="line2d_2"/>
     <g id="text_1">
      <!-- 100K -->
      <g style="fill: #6b7280" transform="translate(85.653486 419.448906) scale(0.105 -0.105)">
       <defs>
        <path id="LiberationSans-31" d="M 488 0 
L 488 478 
L 1609 478 
L 1609 3866 
L 616 3156 
L 616 3688 
L 1656 4403 
L 2175 4403 
L 2175 478 
L 3247 478 
L 3247 0 
L 488 0 
z
" transform="scale(0.015625)"/>
        <path id="LiberationSans-30" d="M 3309 2203 
Q 3309 1100 2920 518 
Q 2531 -63 1772 -63 
Q 1013 -63 631 515 
Q 250 1094 250 2203 
Q 250 3338 620 3903 
Q 991 4469 1791 4469 
Q 2569 4469 2939 3897 
Q 3309 3325 3309 2203 
z
M 2738 2203 
Q 2738 3156 2517 3584 
Q 2297 4013 1791 4013 
Q 1272 4013 1045 3591 
Q 819 3169 819 2203 
Q 819 1266 1048 831 
Q 1278 397 1778 397 
Q 2275 397 2506 840 
Q 2738 1284 2738 2203 
z
" transform="scale(0.015625)"/>
        <path id="LiberationSans-4b" d="M 3456 0 
L 1697 2125 
L 1122 1688 
L 1122 0 
L 525 0 
L 525 4403 
L 1122 4403 
L 1122 2197 
L 3244 4403 
L 3947 4403 
L 2072 2491 
L 4197 0 
L 3456 0 
z
" transform="scale(0.015625)"/>
       </defs>
       <use xlink:href="#LiberationSans-31"/>
       <use xlink:href="#LiberationSans-30" transform="translate(55.615234 0)"/>
       <use xlink:href="#LiberationSans-30" transform="translate(111.230469 0)"/>
       <use xlink:href="#LiberationSans-4b" transform="translate(166.845703 0)"/>
      </g>
     </g>
    </g>
    <g id="xtick_2">
     <g id="line2d_3">
      <path d="M 233.385961 405.839687 
L 233.385961 47.279687 
" clip-path="url(#p405c5b3995)" style="fill: none; stroke-dasharray: 2.035,0.88; stroke-dashoffset: 0; stroke: #e5e7eb; stroke-opacity: 0.35; stroke-width: 0.55"/>
     </g>
     <g id="line2d_4"/>
     <g id="text_2">
      <!-- 1.0M -->
      <g style="fill: #6b7280" transform="translate(221.715375 419.448906) scale(0.105 -0.105)">
       <defs>
        <path id="LiberationSans-2e" d="M 584 0 
L 584 684 
L 1194 684 
L 1194 0 
L 584 0 
z
" transform="scale(0.015625)"/>
        <path id="LiberationSans-4d" d="M 4269 0 
L 4269 2938 
Q 4269 3425 4297 3875 
Q 4144 3316 4022 3000 
L 2884 0 
L 2466 0 
L 1313 3000 
L 1138 3531 
L 1034 3875 
L 1044 3528 
L 1056 2938 
L 1056 0 
L 525 0 
L 525 4403 
L 1309 4403 
L 2481 1350 
Q 2544 1166 2601 955 
Q 2659 744 2678 650 
Q 2703 775 2783 1029 
Q 2863 1284 2891 1350 
L 4041 4403 
L 4806 4403 
L 4806 0 
L 4269 0 
z
" transform="scale(0.015625)"/>
       </defs>
       <use xlink:href="#LiberationSans-31"/>
       <use xlink:href="#LiberationSans-2e" transform="translate(55.615234 0)"/>
       <use xlink:href="#LiberationSans-30" transform="translate(83.398438 0)"/>
       <use xlink:href="#LiberationSans-4d" transform="translate(139.013672 0)"/>
      </g>
     </g>
    </g>
    <g id="xtick_3">
     <g id="line2d_5">
      <path d="M 368.858045 405.839687 
L 368.858045 47.279687 
" clip-path="url(#p405c5b3995)" style="fill: none; stroke-dasharray: 2.035,0.88; stroke-dashoffset: 0; stroke: #e5e7eb; stroke-opacity: 0.35; stroke-width: 0.55"/>
     </g>
     <g id="line2d_6"/>
     <g id="text_3">
      <!-- 10.0M -->
      <g style="fill: #6b7280" transform="translate(354.267967 419.448906) scale(0.105 -0.105)">
       <use xlink:href="#LiberationSans-31"/>
       <use xlink:href="#LiberationSans-30" transform="translate(55.615234 0)"/>
       <use xlink:href="#LiberationSans-2e" transform="translate(111.230469 0)"/>
       <use xlink:href="#LiberationSans-30" transform="translate(139.013672 0)"/>
       <use xlink:href="#LiberationSans-4d" transform="translate(194.628906 0)"/>
      </g>
     </g>
    </g>
    <g id="xtick_4">
     <g id="line2d_7">
      <defs>
       <path id="m93af2abcc7" d="M 0 0 
L 0 2 
" style="stroke: #6b7280; stroke-width: 0.6"/>
      </defs>
      <g>
       <use xlink:href="#m93af2abcc7" x="91.715014" y="405.839687" style="fill: #6b7280; stroke: #6b7280; stroke-width: 0.6"/>
      </g>
     </g>
    </g>
    <g id="xtick_5">
     <g id="line2d_8">
      <g>
       <use xlink:href="#m93af2abcc7" x="138.695037" y="405.839687" style="fill: #6b7280; stroke: #6b7280; stroke-width: 0.6"/>
      </g>
     </g>
    </g>
    <g id="xtick_6">
     <g id="line2d_9">
      <g>
       <use xlink:href="#m93af2abcc7" x="162.550487" y="405.839687" style="fill: #6b7280; stroke: #6b7280; stroke-width: 0.6"/>
      </g>
     </g>
    </g>
    <g id="xtick_7">
     <g id="line2d_10">
      <g>
       <use xlink:href="#m93af2abcc7" x="179.476198" y="405.839687" style="fill: #6b7280; stroke: #6b7280; stroke-width: 0.6"/>
      </g>
     </g>
    </g>
    <g id="xtick_8">
     <g id="line2d_11">
      <g>
       <use xlink:href="#m93af2abcc7" x="192.6048" y="405.839687" style="fill: #6b7280; stroke: #6b7280; stroke-width: 0.6"/>
      </g>
     </g>
    </g>
    <g id="xtick_9">
     <g id="line2d_12">
      <g>
       <use xlink:href="#m93af2abcc7" x="203.331648" y="405.839687" style="fill: #6b7280; stroke: #6b7280; stroke-width: 0.6"/>
      </g>
     </g>
    </g>
    <g id="xtick_10">
     <g id="line2d_13">
      <g>
       <use xlink:href="#m93af2abcc7" x="212.401069" y="405.839687" style="fill: #6b7280; stroke: #6b7280; stroke-width: 0.6"/>
      </g>
     </g>
    </g>
    <g id="xtick_11">
     <g id="line2d_14">
      <g>
       <use xlink:href="#m93af2abcc7" x="220.257359" y="405.839687" style="fill: #6b7280; stroke: #6b7280; stroke-width: 0.6"/>
      </g>
     </g>
    </g>
    <g id="xtick_12">
     <g id="line2d_15">
      <g>
       <use xlink:href="#m93af2abcc7" x="227.187098" y="405.839687" style="fill: #6b7280; stroke: #6b7280; stroke-width: 0.6"/>
      </g>
     </g>
    </g>
    <g id="xtick_13">
     <g id="line2d_16">
      <g>
       <use xlink:href="#m93af2abcc7" x="274.167122" y="405.839687" style="fill: #6b7280; stroke: #6b7280; stroke-width: 0.6"/>
      </g>
     </g>
    </g>
    <g id="xtick_14">
     <g id="line2d_17">
      <g>
       <use xlink:href="#m93af2abcc7" x="298.022572" y="405.839687" style="fill: #6b7280; stroke: #6b7280; stroke-width: 0.6"/>
      </g>
     </g>
    </g>
    <g id="xtick_15">
     <g id="line2d_18">
      <g>
       <use xlink:href="#m93af2abcc7" x="314.948283" y="405.839687" style="fill: #6b7280; stroke: #6b7280; stroke-width: 0.6"/>
      </g>
     </g>
    </g>
    <g id="xtick_16">
     <g id="line2d_19">
      <g>
       <use xlink:href="#m93af2abcc7" x="328.076884" y="405.839687" style="fill: #6b7280; stroke: #6b7280; stroke-width: 0.6"/>
      </g>
     </g>
    </g>
    <g id="xtick_17">
     <g id="line2d_20">
      <g>
       <use xlink:href="#m93af2abcc7" x="338.803733" y="405.839687" style="fill: #6b7280; stroke: #6b7280; stroke-width: 0.6"/>
      </g>
     </g>
    </g>
    <g id="xtick_18">
     <g id="line2d_21">
      <g>
       <use xlink:href="#m93af2abcc7" x="347.873154" y="405.839687" style="fill: #6b7280; stroke: #6b7280; stroke-width: 0.6"/>
      </g>
     </g>
    </g>
    <g id="xtick_19">
     <g id="line2d_22">
      <g>
       <use xlink:href="#m93af2abcc7" x="355.729444" y="405.839687" style="fill: #6b7280; stroke: #6b7280; stroke-width: 0.6"/>
      </g>
     </g>
    </g>
    <g id="xtick_20">
     <g id="line2d_23">
      <g>
       <use xlink:href="#m93af2abcc7" x="362.659183" y="405.839687" style="fill: #6b7280; stroke: #6b7280; stroke-width: 0.6"/>
      </g>
     </g>
    </g>
    <g id="xtick_21">
     <g id="line2d_24">
      <g>
       <use xlink:href="#m93af2abcc7" x="409.639206" y="405.839687" style="fill: #6b7280; stroke: #6b7280; stroke-width: 0.6"/>
      </g>
     </g>
    </g>
    <g id="xtick_22">
     <g id="line2d_25">
      <g>
       <use xlink:href="#m93af2abcc7" x="433.494656" y="405.839687" style="fill: #6b7280; stroke: #6b7280; stroke-width: 0.6"/>
      </g>
     </g>
    </g>
    <g id="xtick_23">
     <g id="line2d_26">
      <g>
       <use xlink:href="#m93af2abcc7" x="450.420367" y="405.839687" style="fill: #6b7280; stroke: #6b7280; stroke-width: 0.6"/>
      </g>
     </g>
    </g>
    <g id="xtick_24">
     <g id="line2d_27">
      <g>
       <use xlink:href="#m93af2abcc7" x="463.548969" y="405.839687" style="fill: #6b7280; stroke: #6b7280; stroke-width: 0.6"/>
      </g>
     </g>
    </g>
    <g id="xtick_25">
     <g id="line2d_28">
      <g>
       <use xlink:href="#m93af2abcc7" x="474.275817" y="405.839687" style="fill: #6b7280; stroke: #6b7280; stroke-width: 0.6"/>
      </g>
     </g>
    </g>
    <g id="text_4">
     <!-- atoms/s -->
     <g style="fill: #111827" transform="translate(262.189883 434.68625) scale(0.125 -0.125)">
      <defs>
       <path id="LiberationSans-61" d="M 1294 -63 
Q 784 -63 528 206 
Q 272 475 272 944 
Q 272 1469 617 1750 
Q 963 2031 1731 2050 
L 2491 2063 
L 2491 2247 
Q 2491 2659 2316 2837 
Q 2141 3016 1766 3016 
Q 1388 3016 1216 2887 
Q 1044 2759 1009 2478 
L 422 2531 
Q 566 3444 1778 3444 
Q 2416 3444 2737 3151 
Q 3059 2859 3059 2306 
L 3059 850 
Q 3059 600 3125 473 
Q 3191 347 3375 347 
Q 3456 347 3559 369 
L 3559 19 
Q 3347 -31 3125 -31 
Q 2813 -31 2670 133 
Q 2528 297 2509 647 
L 2491 647 
Q 2275 259 1989 98 
Q 1703 -63 1294 -63 
z
M 1422 359 
Q 1731 359 1972 500 
Q 2213 641 2352 886 
Q 2491 1131 2491 1391 
L 2491 1669 
L 1875 1656 
Q 1478 1650 1273 1575 
Q 1069 1500 959 1344 
Q 850 1188 850 934 
Q 850 659 998 509 
Q 1147 359 1422 359 
z
" transform="scale(0.015625)"/>
       <path id="LiberationSans-74" d="M 1731 25 
Q 1453 -50 1163 -50 
Q 488 -50 488 716 
L 488 2972 
L 97 2972 
L 97 3381 
L 509 3381 
L 675 4138 
L 1050 4138 
L 1050 3381 
L 1675 3381 
L 1675 2972 
L 1050 2972 
L 1050 838 
Q 1050 594 1129 495 
Q 1209 397 1406 397 
Q 1519 397 1731 441 
L 1731 25 
z
" transform="scale(0.015625)"/>
       <path id="LiberationSans-6f" d="M 3291 1694 
Q 3291 806 2900 371 
Q 2509 -63 1766 -63 
Q 1025 -63 647 389 
Q 269 841 269 1694 
Q 269 3444 1784 3444 
Q 2559 3444 2925 3017 
Q 3291 2591 3291 1694 
z
M 2700 1694 
Q 2700 2394 2492 2711 
Q 2284 3028 1794 3028 
Q 1300 3028 1079 2704 
Q 859 2381 859 1694 
Q 859 1025 1076 689 
Q 1294 353 1759 353 
Q 2266 353 2483 678 
Q 2700 1003 2700 1694 
z
" transform="scale(0.015625)"/>
       <path id="LiberationSans-6d" d="M 2400 0 
L 2400 2144 
Q 2400 2634 2265 2821 
Q 2131 3009 1781 3009 
Q 1422 3009 1212 2734 
Q 1003 2459 1003 1959 
L 1003 0 
L 444 0 
L 444 2659 
Q 444 3250 425 3381 
L 956 3381 
Q 959 3366 962 3297 
Q 966 3228 970 3139 
Q 975 3050 981 2803 
L 991 2803 
Q 1172 3163 1406 3303 
Q 1641 3444 1978 3444 
Q 2363 3444 2586 3291 
Q 2809 3138 2897 2803 
L 2906 2803 
Q 3081 3144 3329 3294 
Q 3578 3444 3931 3444 
Q 4444 3444 4676 3166 
Q 4909 2888 4909 2253 
L 4909 0 
L 4353 0 
L 4353 2144 
Q 4353 2634 4218 2821 
Q 4084 3009 3734 3009 
Q 3366 3009 3161 2736 
Q 2956 2463 2956 1959 
L 2956 0 
L 2400 0 
z
" transform="scale(0.015625)"/>
       <path id="LiberationSans-73" d="M 2969 934 
Q 2969 456 2608 196 
Q 2247 -63 1597 -63 
Q 966 -63 623 145 
Q 281 353 178 794 
L 675 891 
Q 747 619 972 492 
Q 1197 366 1597 366 
Q 2025 366 2223 497 
Q 2422 628 2422 891 
Q 2422 1091 2284 1216 
Q 2147 1341 1841 1422 
L 1438 1528 
Q 953 1653 748 1773 
Q 544 1894 428 2066 
Q 313 2238 313 2488 
Q 313 2950 642 3192 
Q 972 3434 1603 3434 
Q 2163 3434 2492 3237 
Q 2822 3041 2909 2606 
L 2403 2544 
Q 2356 2769 2151 2889 
Q 1947 3009 1603 3009 
Q 1222 3009 1040 2893 
Q 859 2778 859 2544 
Q 859 2400 934 2306 
Q 1009 2213 1156 2147 
Q 1303 2081 1775 1966 
Q 2222 1853 2419 1758 
Q 2616 1663 2730 1547 
Q 2844 1431 2906 1279 
Q 2969 1128 2969 934 
z
" transform="scale(0.015625)"/>
       <path id="LiberationSans-2f" d="M 0 -63 
L 1284 4638 
L 1778 4638 
L 506 -63 
L 0 -63 
z
" transform="scale(0.015625)"/>
      </defs>
      <use xlink:href="#LiberationSans-61"/>
      <use xlink:href="#LiberationSans-74" transform="translate(55.615234 0)"/>
      <use xlink:href="#LiberationSans-6f" transform="translate(83.398438 0)"/>
      <use xlink:href="#LiberationSans-6d" transform="translate(139.013672 0)"/>
      <use xlink:href="#LiberationSans-73" transform="translate(222.314453 0)"/>
      <use xlink:href="#LiberationSans-2f" transform="translate(272.314453 0)"/>
      <use xlink:href="#LiberationSans-73" transform="translate(300.097656 0)"/>
     </g>
    </g>
   </g>
   <g id="matplotlib.axis_2">
    <g id="ytick_1">
     <g id="line2d_29"/>
     <g id="text_5">
      <!-- Atompack -->
      <g style="fill: #111827" transform="translate(33.385781 86.387426) scale(0.105 -0.105)">
       <defs>
        <path id="LiberationSans-41" d="M 3647 0 
L 3144 1288 
L 1138 1288 
L 631 0 
L 13 0 
L 1809 4403 
L 2488 4403 
L 4256 0 
L 3647 0 
z
M 2141 3953 
L 2113 3866 
Q 2034 3606 1881 3200 
L 1319 1753 
L 2966 1753 
L 2400 3206 
Q 2313 3422 2225 3694 
L 2141 3953 
z
" transform="scale(0.015625)"/>
        <path id="LiberationSans-70" d="M 3291 1706 
Q 3291 -63 2047 -63 
Q 1266 -63 997 525 
L 981 525 
Q 994 500 994 -6 
L 994 -1328 
L 431 -1328 
L 431 2691 
Q 431 3213 413 3381 
L 956 3381 
Q 959 3369 965 3292 
Q 972 3216 980 3056 
Q 988 2897 988 2838 
L 1000 2838 
Q 1150 3150 1397 3295 
Q 1644 3441 2047 3441 
Q 2672 3441 2981 3022 
Q 3291 2603 3291 1706 
z
M 2700 1694 
Q 2700 2400 2509 2703 
Q 2319 3006 1903 3006 
Q 1569 3006 1380 2865 
Q 1191 2725 1092 2426 
Q 994 2128 994 1650 
Q 994 984 1206 668 
Q 1419 353 1897 353 
Q 2316 353 2508 661 
Q 2700 969 2700 1694 
z
" transform="scale(0.015625)"/>
        <path id="LiberationSans-63" d="M 859 1706 
Q 859 1031 1071 706 
Q 1284 381 1713 381 
Q 2013 381 2214 543 
Q 2416 706 2463 1044 
L 3031 1006 
Q 2966 519 2616 228 
Q 2266 -63 1728 -63 
Q 1019 -63 645 385 
Q 272 834 272 1694 
Q 272 2547 647 2995 
Q 1022 3444 1722 3444 
Q 2241 3444 2583 3175 
Q 2925 2906 3013 2434 
L 2434 2391 
Q 2391 2672 2212 2837 
Q 2034 3003 1706 3003 
Q 1259 3003 1059 2706 
Q 859 2409 859 1706 
z
" transform="scale(0.015625)"/>
        <path id="LiberationSans-6b" d="M 2550 0 
L 1406 1544 
L 994 1203 
L 994 0 
L 431 0 
L 431 4638 
L 994 4638 
L 994 1741 
L 2478 3381 
L 3138 3381 
L 1766 1928 
L 3209 0 
L 2550 0 
z
" transform="scale(0.015625)"/>
       </defs>
       <use xlink:href="#LiberationSans-41"/>
       <use xlink:href="#LiberationSans-74" transform="translate(66.699219 0)"/>
       <use xlink:href="#LiberationSans-6f" transform="translate(94.482422 0)"/>
       <use xlink:href="#LiberationSans-6d" transform="translate(150.097656 0)"/>
       <use xlink:href="#LiberationSans-70" transform="translate(233.398438 0)"/>
       <use xlink:href="#LiberationSans-61" transform="translate(289.013672 0)"/>
       <use xlink:href="#LiberationSans-63" transform="translate(344.628906 0)"/>
       <use xlink:href="#LiberationSans-6b" transform="translate(394.628906 0)"/>
      </g>
     </g>
    </g>
    <g id="ytick_2">
     <g id="line2d_30"/>
     <g id="text_6">
      <!-- HDF5 SOA -->
      <g style="fill: #6b7280" transform="translate(27.559922 143.978174) scale(0.105 -0.105)">
       <defs>
        <path id="LiberationSans-48" d="M 3503 0 
L 3503 2041 
L 1122 2041 
L 1122 0 
L 525 0 
L 525 4403 
L 1122 4403 
L 1122 2541 
L 3503 2541 
L 3503 4403 
L 4100 4403 
L 4100 0 
L 3503 0 
z
" transform="scale(0.015625)"/>
        <path id="LiberationSans-44" d="M 4316 2247 
Q 4316 1566 4050 1055 
Q 3784 544 3296 272 
Q 2809 0 2172 0 
L 525 0 
L 525 4403 
L 1981 4403 
Q 3100 4403 3708 3842 
Q 4316 3281 4316 2247 
z
M 3716 2247 
Q 3716 3066 3267 3495 
Q 2819 3925 1969 3925 
L 1122 3925 
L 1122 478 
L 2103 478 
Q 2588 478 2955 690 
Q 3322 903 3519 1303 
Q 3716 1703 3716 2247 
z
" transform="scale(0.015625)"/>
        <path id="LiberationSans-46" d="M 1122 3916 
L 1122 2278 
L 3578 2278 
L 3578 1784 
L 1122 1784 
L 1122 0 
L 525 0 
L 525 4403 
L 3653 4403 
L 3653 3916 
L 1122 3916 
z
" transform="scale(0.015625)"/>
        <path id="LiberationSans-35" d="M 3291 1434 
Q 3291 738 2877 337 
Q 2463 -63 1728 -63 
Q 1113 -63 734 206 
Q 356 475 256 984 
L 825 1050 
Q 1003 397 1741 397 
Q 2194 397 2450 670 
Q 2706 944 2706 1422 
Q 2706 1838 2448 2094 
Q 2191 2350 1753 2350 
Q 1525 2350 1328 2278 
Q 1131 2206 934 2034 
L 384 2034 
L 531 4403 
L 3034 4403 
L 3034 3925 
L 1044 3925 
L 959 2528 
Q 1325 2809 1869 2809 
Q 2519 2809 2905 2428 
Q 3291 2047 3291 1434 
z
" transform="scale(0.015625)"/>
        <path id="LiberationSans-20" transform="scale(0.015625)"/>
        <path id="LiberationSans-53" d="M 3975 1216 
Q 3975 606 3498 271 
Q 3022 -63 2156 -63 
Q 547 -63 291 1056 
L 869 1172 
Q 969 775 1294 589 
Q 1619 403 2178 403 
Q 2756 403 3070 601 
Q 3384 800 3384 1184 
Q 3384 1400 3286 1534 
Q 3188 1669 3009 1756 
Q 2831 1844 2584 1903 
Q 2338 1963 2038 2031 
Q 1516 2147 1245 2262 
Q 975 2378 819 2520 
Q 663 2663 580 2853 
Q 497 3044 497 3291 
Q 497 3856 930 4162 
Q 1363 4469 2169 4469 
Q 2919 4469 3316 4239 
Q 3713 4009 3872 3456 
L 3284 3353 
Q 3188 3703 2916 3861 
Q 2644 4019 2163 4019 
Q 1634 4019 1356 3844 
Q 1078 3669 1078 3322 
Q 1078 3119 1186 2986 
Q 1294 2853 1497 2761 
Q 1700 2669 2306 2534 
Q 2509 2488 2711 2439 
Q 2913 2391 3097 2323 
Q 3281 2256 3442 2165 
Q 3603 2075 3722 1944 
Q 3841 1813 3908 1634 
Q 3975 1456 3975 1216 
z
" transform="scale(0.015625)"/>
        <path id="LiberationSans-4f" d="M 4672 2222 
Q 4672 1531 4408 1012 
Q 4144 494 3650 215 
Q 3156 -63 2484 -63 
Q 1806 -63 1314 212 
Q 822 488 562 1008 
Q 303 1528 303 2222 
Q 303 3278 881 3873 
Q 1459 4469 2491 4469 
Q 3163 4469 3656 4201 
Q 4150 3934 4411 3425 
Q 4672 2916 4672 2222 
z
M 4063 2222 
Q 4063 3044 3652 3512 
Q 3241 3981 2491 3981 
Q 1734 3981 1321 3518 
Q 909 3056 909 2222 
Q 909 1394 1326 908 
Q 1744 422 2484 422 
Q 3247 422 3655 892 
Q 4063 1363 4063 2222 
z
" transform="scale(0.015625)"/>
       </defs>
       <use xlink:href="#LiberationSans-48"/>
       <use xlink:href="#LiberationSans-44" transform="translate(72.216797 0)"/>
       <use xlink:href="#LiberationSans-46" transform="translate(144.433594 0)"/>
       <use xlink:href="#LiberationSans-35" transform="translate(205.517578 0)"/>
       <use xlink:href="#LiberationSans-20" transform="translate(261.132812 0)"/>
       <use xlink:href="#LiberationSans-53" transform="translate(288.916016 0)"/>
       <use xlink:href="#LiberationSans-4f" transform="translate(355.615234 0)"/>
       <use xlink:href="#LiberationSans-41" transform="translate(433.398438 0)"/>
      </g>
     </g>
    </g>
    <g id="ytick_3">
     <g id="line2d_31"/>
     <g id="text_7">
      <!-- LMDB Packed -->
      <g style="fill: #6b7280" transform="translate(12.96 201.568923) scale(0.105 -0.105)">
       <defs>
        <path id="LiberationSans-4c" d="M 525 0 
L 525 4403 
L 1122 4403 
L 1122 488 
L 3347 488 
L 3347 0 
L 525 0 
z
" transform="scale(0.015625)"/>
        <path id="LiberationSans-42" d="M 3931 1241 
Q 3931 653 3503 326 
Q 3075 0 2313 0 
L 525 0 
L 525 4403 
L 2125 4403 
Q 3675 4403 3675 3334 
Q 3675 2944 3456 2678 
Q 3238 2413 2838 2322 
Q 3363 2259 3647 1970 
Q 3931 1681 3931 1241 
z
M 3075 3263 
Q 3075 3619 2831 3772 
Q 2588 3925 2125 3925 
L 1122 3925 
L 1122 2531 
L 2125 2531 
Q 2603 2531 2839 2711 
Q 3075 2891 3075 3263 
z
M 3328 1288 
Q 3328 2066 2234 2066 
L 1122 2066 
L 1122 478 
L 2281 478 
Q 2828 478 3078 681 
Q 3328 884 3328 1288 
z
" transform="scale(0.015625)"/>
        <path id="LiberationSans-50" d="M 3931 3078 
Q 3931 2453 3523 2084 
Q 3116 1716 2416 1716 
L 1122 1716 
L 1122 0 
L 525 0 
L 525 4403 
L 2378 4403 
Q 3119 4403 3525 4056 
Q 3931 3709 3931 3078 
z
M 3331 3072 
Q 3331 3925 2306 3925 
L 1122 3925 
L 1122 2188 
L 2331 2188 
Q 3331 2188 3331 3072 
z
" transform="scale(0.015625)"/>
        <path id="LiberationSans-65" d="M 863 1572 
Q 863 991 1103 675 
Q 1344 359 1806 359 
Q 2172 359 2392 506 
Q 2613 653 2691 878 
L 3184 738 
Q 2881 -63 1806 -63 
Q 1056 -63 664 384 
Q 272 831 272 1713 
Q 272 2550 664 2997 
Q 1056 3444 1784 3444 
Q 3275 3444 3275 1647 
L 3275 1572 
L 863 1572 
z
M 2694 2003 
Q 2647 2538 2422 2783 
Q 2197 3028 1775 3028 
Q 1366 3028 1127 2754 
Q 888 2481 869 2003 
L 2694 2003 
z
" transform="scale(0.015625)"/>
        <path id="LiberationSans-64" d="M 2566 544 
Q 2409 219 2151 78 
Q 1894 -63 1513 -63 
Q 872 -63 570 368 
Q 269 800 269 1675 
Q 269 3444 1513 3444 
Q 1897 3444 2153 3303 
Q 2409 3163 2566 2856 
L 2572 2856 
L 2566 3234 
L 2566 4638 
L 3128 4638 
L 3128 697 
Q 3128 169 3147 0 
L 2609 0 
Q 2600 50 2589 231 
Q 2578 413 2578 544 
L 2566 544 
z
M 859 1694 
Q 859 984 1046 678 
Q 1234 372 1656 372 
Q 2134 372 2350 703 
Q 2566 1034 2566 1731 
Q 2566 2403 2350 2715 
Q 2134 3028 1663 3028 
Q 1238 3028 1048 2714 
Q 859 2400 859 1694 
z
" transform="scale(0.015625)"/>
       </defs>
       <use xlink:href="#LiberationSans-4c"/>
       <use xlink:href="#LiberationSans-4d" transform="translate(55.615234 0)"/>
       <use xlink:href="#LiberationSans-44" transform="translate(138.916016 0)"/>
       <use xlink:href="#LiberationSans-42" transform="translate(211.132812 0)"/>
       <use xlink:href="#LiberationSans-20" transform="translate(277.832031 0)"/>
       <use xlink:href="#LiberationSans-50" transform="translate(305.615234 0)"/>
       <use xlink:href="#LiberationSans-61" transform="translate(372.314453 0)"/>
       <use xlink:href="#LiberationSans-63" transform="translate(427.929688 0)"/>
       <use xlink:href="#LiberationSans-6b" transform="translate(477.929688 0)"/>
       <use xlink:href="#LiberationSans-65" transform="translate(527.929688 0)"/>
       <use xlink:href="#LiberationSans-64" transform="translate(583.544922 0)"/>
      </g>
     </g>
    </g>
    <g id="ytick_4">
     <g id="line2d_32"/>
     <g id="text_8">
      <!-- LMDB Pickle -->
      <g style="fill: #6b7280" transform="translate(19.972031 259.159671) scale(0.105 -0.105)">
       <defs>
        <path id="LiberationSans-69" d="M 428 4100 
L 428 4638 
L 991 4638 
L 991 4100 
L 428 4100 
z
M 428 0 
L 428 3381 
L 991 3381 
L 991 0 
L 428 0 
z
" transform="scale(0.015625)"/>
        <path id="LiberationSans-6c" d="M 431 0 
L 431 4638 
L 994 4638 
L 994 0 
L 431 0 
z
" transform="scale(0.015625)"/>
       </defs>
       <use xlink:href="#LiberationSans-4c"/>
       <use xlink:href="#LiberationSans-4d" transform="translate(55.615234 0)"/>
       <use xlink:href="#LiberationSans-44" transform="translate(138.916016 0)"/>
       <use xlink:href="#LiberationSans-42" transform="translate(211.132812 0)"/>
       <use xlink:href="#LiberationSans-20" transform="translate(277.832031 0)"/>
       <use xlink:href="#LiberationSans-50" transform="translate(305.615234 0)"/>
       <use xlink:href="#LiberationSans-69" transform="translate(372.314453 0)"/>
       <use xlink:href="#LiberationSans-63" transform="translate(394.53125 0)"/>
       <use xlink:href="#LiberationSans-6b" transform="translate(444.53125 0)"/>
       <use xlink:href="#LiberationSans-6c" transform="translate(494.53125 0)"/>
       <use xlink:href="#LiberationSans-65" transform="translate(516.748047 0)"/>
      </g>
     </g>
    </g>
    <g id="ytick_5">
     <g id="line2d_33"/>
     <g id="text_9">
      <!-- ASE LMDB -->
      <g style="fill: #6b7280" transform="translate(26.969297 316.75042) scale(0.105 -0.105)">
       <defs>
        <path id="LiberationSans-45" d="M 525 0 
L 525 4403 
L 3866 4403 
L 3866 3916 
L 1122 3916 
L 1122 2503 
L 3678 2503 
L 3678 2022 
L 1122 2022 
L 1122 488 
L 3994 488 
L 3994 0 
L 525 0 
z
" transform="scale(0.015625)"/>
       </defs>
       <use xlink:href="#LiberationSans-41"/>
       <use xlink:href="#LiberationSans-53" transform="translate(66.699219 0)"/>
       <use xlink:href="#LiberationSans-45" transform="translate(133.398438 0)"/>
       <use xlink:href="#LiberationSans-20" transform="translate(200.097656 0)"/>
       <use xlink:href="#LiberationSans-4c" transform="translate(227.880859 0)"/>
       <use xlink:href="#LiberationSans-4d" transform="translate(283.496094 0)"/>
       <use xlink:href="#LiberationSans-44" transform="translate(366.796875 0)"/>
       <use xlink:href="#LiberationSans-42" transform="translate(439.013672 0)"/>
      </g>
     </g>
    </g>
    <g id="ytick_6">
     <g id="line2d_34"/>
     <g id="text_10">
      <!-- ASE SQLite -->
      <g style="fill: #6b7280" transform="translate(24.042422 374.341168) scale(0.105 -0.105)">
       <defs>
        <path id="LiberationSans-51" d="M 4672 2222 
Q 4672 1291 4203 691 
Q 3734 91 2900 -19 
Q 3028 -413 3236 -588 
Q 3444 -763 3763 -763 
Q 3934 -763 4122 -722 
L 4122 -1141 
Q 3831 -1209 3566 -1209 
Q 3094 -1209 2789 -942 
Q 2484 -675 2291 -50 
Q 1672 -19 1223 264 
Q 775 547 539 1051 
Q 303 1556 303 2222 
Q 303 3278 881 3873 
Q 1459 4469 2491 4469 
Q 3163 4469 3656 4201 
Q 4150 3934 4411 3425 
Q 4672 2916 4672 2222 
z
M 4063 2222 
Q 4063 3044 3652 3512 
Q 3241 3981 2491 3981 
Q 1734 3981 1321 3518 
Q 909 3056 909 2222 
Q 909 1394 1326 908 
Q 1744 422 2484 422 
Q 3247 422 3655 892 
Q 4063 1363 4063 2222 
z
" transform="scale(0.015625)"/>
       </defs>
       <use xlink:href="#LiberationSans-41"/>
       <use xlink:href="#LiberationSans-53" transform="translate(66.699219 0)"/>
       <use xlink:href="#LiberationSans-45" transform="translate(133.398438 0)"/>
       <use xlink:href="#LiberationSans-20" transform="translate(200.097656 0)"/>
       <use xlink:href="#LiberationSans-53" transform="translate(227.880859 0)"/>
       <use xlink:href="#LiberationSans-51" transform="translate(294.580078 0)"/>
       <use xlink:href="#LiberationSans-4c" transform="translate(372.363281 0)"/>
       <use xlink:href="#LiberationSans-69" transform="translate(427.978516 0)"/>
       <use xlink:href="#LiberationSans-74" transform="translate(450.195312 0)"/>
       <use xlink:href="#LiberationSans-65" transform="translate(477.978516 0)"/>
      </g>
     </g>
    </g>
   </g>
   <g id="patch_3">
    <path d="M -136051.531113 63.577869 
L 452.388478 63.577869 
L 452.388478 101.587763 
L -136051.531113 101.587763 
z
" clip-path="url(#p405c5b3995)" style="fill: #4f2af5; stroke: #6d28d9; stroke-width: 1.4; stroke-linejoin: miter"/>
   </g>
   <g id="patch_4">
    <path d="M -136051.531113 121.168618 
L 433.703535 121.168618 
L 433.703535 159.178512 
L -136051.531113 159.178512 
z
" clip-path="url(#p405c5b3995)" style="fill: #b03edc"/>
   </g>
   <g id="patch_5">
    <path d="M -136051.531113 178.759366 
L 381.731467 178.759366 
L 381.731467 216.76926 
L -136051.531113 216.76926 
z
" clip-path="url(#p405c5b3995)" style="fill: #d14bbf"/>
   </g>
   <g id="patch_6">
    <path d="M -136051.531113 236.350115 
L 355.59078 236.350115 
L 355.59078 274.360009 
L -136051.531113 274.360009 
z
" clip-path="url(#p405c5b3995)" style="fill: #f05a8a"/>
   </g>
   <g id="patch_7">
    <path d="M -136051.531113 293.940863 
L 161.913416 293.940863 
L 161.913416 331.950757 
L -136051.531113 331.950757 
z
" clip-path="url(#p405c5b3995)" style="fill: #8a7db2"/>
   </g>
   <g id="patch_8">
    <path d="M -136051.531113 351.531612 
L 105.919397 351.531612 
L 105.919397 389.541506 
L -136051.531113 389.541506 
z
" clip-path="url(#p405c5b3995)" style="fill: #a98bc8"/>
   </g>
   <g id="text_11">
    <!-- 41.4M -->
    <g style="fill: #4f2af5" transform="translate(455.477321 85.427348) scale(0.11 -0.11)">
     <defs>
      <path id="LiberationSans-Bold-34" d="M 2938 897 
L 2938 0 
L 2100 0 
L 2100 897 
L 97 897 
L 97 1556 
L 1956 4403 
L 2938 4403 
L 2938 1550 
L 3525 1550 
L 3525 897 
L 2938 897 
z
M 2100 2991 
Q 2100 3159 2111 3356 
Q 2122 3553 2128 3609 
Q 2047 3434 1834 3103 
L 813 1550 
L 2100 1550 
L 2100 2991 
z
" transform="scale(0.015625)"/>
      <path id="LiberationSans-Bold-31" d="M 403 0 
L 403 653 
L 1494 653 
L 1494 3656 
L 438 2997 
L 438 3688 
L 1541 4403 
L 2372 4403 
L 2372 653 
L 3381 653 
L 3381 0 
L 403 0 
z
" transform="scale(0.015625)"/>
      <path id="LiberationSans-Bold-2e" d="M 434 0 
L 434 953 
L 1338 953 
L 1338 0 
L 434 0 
z
" transform="scale(0.015625)"/>
      <path id="LiberationSans-Bold-4d" d="M 4084 0 
L 4084 2669 
Q 4084 2759 4086 2850 
Q 4088 2941 4116 3628 
Q 3894 2788 3788 2456 
L 2994 0 
L 2338 0 
L 1544 2456 
L 1209 3628 
Q 1247 2903 1247 2669 
L 1247 0 
L 428 0 
L 428 4403 
L 1663 4403 
L 2450 1941 
L 2519 1703 
L 2669 1113 
L 2866 1819 
L 3675 4403 
L 4903 4403 
L 4903 0 
L 4084 0 
z
" transform="scale(0.015625)"/>
     </defs>
     <use xlink:href="#LiberationSans-Bold-34"/>
     <use xlink:href="#LiberationSans-Bold-31" transform="translate(55.615234 0)"/>
     <use xlink:href="#LiberationSans-Bold-2e" transform="translate(111.230469 0)"/>
     <use xlink:href="#LiberationSans-Bold-34" transform="translate(139.013672 0)"/>
     <use xlink:href="#LiberationSans-Bold-4d" transform="translate(194.628906 0)"/>
    </g>
   </g>
   <g id="text_12">
    <!-- 30.1M -->
    <g style="fill: #b03edc" transform="translate(436.879906 143.018096) scale(0.11 -0.11)">
     <defs>
      <path id="LiberationSans-33" d="M 3278 1216 
Q 3278 606 2890 271 
Q 2503 -63 1784 -63 
Q 1116 -63 717 239 
Q 319 541 244 1131 
L 825 1184 
Q 938 403 1784 403 
Q 2209 403 2451 612 
Q 2694 822 2694 1234 
Q 2694 1594 2417 1795 
Q 2141 1997 1619 1997 
L 1300 1997 
L 1300 2484 
L 1606 2484 
Q 2069 2484 2323 2686 
Q 2578 2888 2578 3244 
Q 2578 3597 2370 3801 
Q 2163 4006 1753 4006 
Q 1381 4006 1151 3815 
Q 922 3625 884 3278 
L 319 3322 
Q 381 3863 767 4166 
Q 1153 4469 1759 4469 
Q 2422 4469 2789 4161 
Q 3156 3853 3156 3303 
Q 3156 2881 2920 2617 
Q 2684 2353 2234 2259 
L 2234 2247 
Q 2728 2194 3003 1916 
Q 3278 1638 3278 1216 
z
" transform="scale(0.015625)"/>
     </defs>
     <use xlink:href="#LiberationSans-33"/>
     <use xlink:href="#LiberationSans-30" transform="translate(55.615234 0)"/>
     <use xlink:href="#LiberationSans-2e" transform="translate(111.230469 0)"/>
     <use xlink:href="#LiberationSans-31" transform="translate(139.013672 0)"/>
     <use xlink:href="#LiberationSans-4d" transform="translate(194.628906 0)"/>
    </g>
   </g>
   <g id="text_13">
    <!-- 12.4M -->
    <g style="fill: #d14bbf" transform="translate(386.43753 200.608845) scale(0.11 -0.11)">
     <defs>
      <path id="LiberationSans-32" d="M 322 0 
L 322 397 
Q 481 763 711 1042 
Q 941 1322 1194 1548 
Q 1447 1775 1695 1969 
Q 1944 2163 2144 2356 
Q 2344 2550 2467 2762 
Q 2591 2975 2591 3244 
Q 2591 3606 2378 3806 
Q 2166 4006 1788 4006 
Q 1428 4006 1195 3811 
Q 963 3616 922 3263 
L 347 3316 
Q 409 3844 795 4156 
Q 1181 4469 1788 4469 
Q 2453 4469 2811 4155 
Q 3169 3841 3169 3263 
Q 3169 3006 3051 2753 
Q 2934 2500 2703 2247 
Q 2472 1994 1819 1463 
Q 1459 1169 1246 933 
Q 1034 697 941 478 
L 3238 478 
L 3238 0 
L 322 0 
z
" transform="scale(0.015625)"/>
      <path id="LiberationSans-34" d="M 2753 997 
L 2753 0 
L 2222 0 
L 2222 997 
L 147 997 
L 147 1434 
L 2163 4403 
L 2753 4403 
L 2753 1441 
L 3372 1441 
L 3372 997 
L 2753 997 
z
M 2222 3769 
Q 2216 3750 2134 3603 
Q 2053 3456 2013 3397 
L 884 1734 
L 716 1503 
L 666 1441 
L 2222 1441 
L 2222 3769 
z
" transform="scale(0.015625)"/>
     </defs>
     <use xlink:href="#LiberationSans-31"/>
     <use xlink:href="#LiberationSans-32" transform="translate(55.615234 0)"/>
     <use xlink:href="#LiberationSans-2e" transform="translate(111.230469 0)"/>
     <use xlink:href="#LiberationSans-34" transform="translate(139.013672 0)"/>
     <use xlink:href="#LiberationSans-4d" transform="translate(194.628906 0)"/>
    </g>
   </g>
   <g id="text_14">
    <!-- 8.0M -->
    <g style="fill: #f05a8a" transform="translate(358.87279 258.199593) scale(0.11 -0.11)">
     <defs>
      <path id="LiberationSans-38" d="M 3281 1228 
Q 3281 619 2893 278 
Q 2506 -63 1781 -63 
Q 1075 -63 676 271 
Q 278 606 278 1222 
Q 278 1653 525 1947 
Q 772 2241 1156 2303 
L 1156 2316 
Q 797 2400 589 2681 
Q 381 2963 381 3341 
Q 381 3844 757 4156 
Q 1134 4469 1769 4469 
Q 2419 4469 2795 4162 
Q 3172 3856 3172 3334 
Q 3172 2956 2962 2675 
Q 2753 2394 2391 2322 
L 2391 2309 
Q 2813 2241 3047 1952 
Q 3281 1663 3281 1228 
z
M 2588 3303 
Q 2588 4050 1769 4050 
Q 1372 4050 1164 3862 
Q 956 3675 956 3303 
Q 956 2925 1170 2726 
Q 1384 2528 1775 2528 
Q 2172 2528 2380 2711 
Q 2588 2894 2588 3303 
z
M 2697 1281 
Q 2697 1691 2453 1898 
Q 2209 2106 1769 2106 
Q 1341 2106 1100 1882 
Q 859 1659 859 1269 
Q 859 359 1788 359 
Q 2247 359 2472 579 
Q 2697 800 2697 1281 
z
" transform="scale(0.015625)"/>
     </defs>
     <use xlink:href="#LiberationSans-38"/>
     <use xlink:href="#LiberationSans-2e" transform="translate(55.615234 0)"/>
     <use xlink:href="#LiberationSans-30" transform="translate(83.398438 0)"/>
     <use xlink:href="#LiberationSans-4d" transform="translate(139.013672 0)"/>
    </g>
   </g>
   <g id="text_15">
    <!-- 297K -->
    <g style="fill: #8a7db2" transform="translate(164.987497 315.790341) scale(0.11 -0.11)">
     <defs>
      <path id="LiberationSans-39" d="M 3256 2291 
Q 3256 1156 2842 546 
Q 2428 -63 1663 -63 
Q 1147 -63 836 154 
Q 525 372 391 856 
L 928 941 
Q 1097 391 1672 391 
Q 2156 391 2422 841 
Q 2688 1291 2700 2125 
Q 2575 1844 2272 1673 
Q 1969 1503 1606 1503 
Q 1013 1503 656 1909 
Q 300 2316 300 2988 
Q 300 3678 687 4073 
Q 1075 4469 1766 4469 
Q 2500 4469 2878 3925 
Q 3256 3381 3256 2291 
z
M 2644 2834 
Q 2644 3366 2400 3689 
Q 2156 4013 1747 4013 
Q 1341 4013 1106 3736 
Q 872 3459 872 2988 
Q 872 2506 1106 2226 
Q 1341 1947 1741 1947 
Q 1984 1947 2193 2058 
Q 2403 2169 2523 2372 
Q 2644 2575 2644 2834 
z
" transform="scale(0.015625)"/>
      <path id="LiberationSans-37" d="M 3238 3947 
Q 2563 2916 2284 2331 
Q 2006 1747 1867 1178 
Q 1728 609 1728 0 
L 1141 0 
Q 1141 844 1498 1776 
Q 1856 2709 2694 3925 
L 328 3925 
L 328 4403 
L 3238 4403 
L 3238 3947 
z
" transform="scale(0.015625)"/>
     </defs>
     <use xlink:href="#LiberationSans-32"/>
     <use xlink:href="#LiberationSans-39" transform="translate(55.615234 0)"/>
     <use xlink:href="#LiberationSans-37" transform="translate(111.230469 0)"/>
     <use xlink:href="#LiberationSans-4b" transform="translate(166.845703 0)"/>
    </g>
   </g>
   <g id="text_16">
    <!-- 115K -->
    <g style="fill: #a98bc8" transform="translate(109.307529 373.38109) scale(0.11 -0.11)">
     <use xlink:href="#LiberationSans-31"/>
     <use xlink:href="#LiberationSans-31" transform="translate(48.240234 0)"/>
     <use xlink:href="#LiberationSans-35" transform="translate(103.855469 0)"/>
     <use xlink:href="#LiberationSans-4b" transform="translate(159.470703 0)"/>
    </g>
   </g>
   <g id="text_17">
    <!-- Sequential Read -->
    <g style="fill: #111827" transform="translate(217.946406 25.279687) scale(0.17 -0.17)">
     <defs>
      <path id="LiberationSans-Bold-53" d="M 4019 1269 
Q 4019 622 3539 279 
Q 3059 -63 2131 -63 
Q 1284 -63 803 237 
Q 322 538 184 1147 
L 1075 1294 
Q 1166 944 1428 786 
Q 1691 628 2156 628 
Q 3122 628 3122 1216 
Q 3122 1403 3011 1525 
Q 2900 1647 2698 1728 
Q 2497 1809 1925 1925 
Q 1431 2041 1237 2111 
Q 1044 2181 887 2276 
Q 731 2372 622 2506 
Q 513 2641 452 2822 
Q 391 3003 391 3238 
Q 391 3834 839 4151 
Q 1288 4469 2144 4469 
Q 2963 4469 3373 4212 
Q 3784 3956 3903 3366 
L 3009 3244 
Q 2941 3528 2730 3672 
Q 2519 3816 2125 3816 
Q 1288 3816 1288 3291 
Q 1288 3119 1377 3009 
Q 1466 2900 1641 2823 
Q 1816 2747 2350 2631 
Q 2984 2497 3257 2383 
Q 3531 2269 3690 2117 
Q 3850 1966 3934 1755 
Q 4019 1544 4019 1269 
z
" transform="scale(0.015625)"/>
      <path id="LiberationSans-Bold-65" d="M 1831 -63 
Q 1069 -63 659 389 
Q 250 841 250 1706 
Q 250 2544 665 2994 
Q 1081 3444 1844 3444 
Q 2572 3444 2956 2961 
Q 3341 2478 3341 1547 
L 3341 1522 
L 1172 1522 
Q 1172 1028 1355 776 
Q 1538 525 1875 525 
Q 2341 525 2463 928 
L 3291 856 
Q 2931 -63 1831 -63 
z
M 1831 2891 
Q 1522 2891 1355 2675 
Q 1188 2459 1178 2072 
L 2491 2072 
Q 2466 2481 2294 2686 
Q 2122 2891 1831 2891 
z
" transform="scale(0.015625)"/>
      <path id="LiberationSans-Bold-71" d="M 263 1688 
Q 263 2525 605 2986 
Q 947 3447 1569 3447 
Q 2306 3447 2591 2838 
Q 2591 2981 2608 3157 
Q 2625 3334 2638 3381 
L 3481 3381 
Q 3463 3044 3463 2603 
L 3463 -1328 
L 2591 -1328 
L 2591 78 
L 2606 563 
L 2600 563 
Q 2309 -63 1497 -63 
Q 906 -63 584 398 
Q 263 859 263 1688 
z
M 2597 1706 
Q 2597 2247 2415 2545 
Q 2234 2844 1881 2844 
Q 1178 2844 1178 1688 
Q 1178 538 1875 538 
Q 2219 538 2408 842 
Q 2597 1147 2597 1706 
z
" transform="scale(0.015625)"/>
      <path id="LiberationSans-Bold-75" d="M 1275 3381 
L 1275 1484 
Q 1275 594 1875 594 
Q 2194 594 2389 867 
Q 2584 1141 2584 1569 
L 2584 3381 
L 3463 3381 
L 3463 756 
Q 3463 325 3488 0 
L 2650 0 
Q 2613 450 2613 672 
L 2597 672 
Q 2422 288 2151 112 
Q 1881 -63 1509 -63 
Q 972 -63 684 267 
Q 397 597 397 1234 
L 397 3381 
L 1275 3381 
z
" transform="scale(0.015625)"/>
      <path id="LiberationSans-Bold-6e" d="M 2638 0 
L 2638 1897 
Q 2638 2788 2034 2788 
Q 1716 2788 1520 2514 
Q 1325 2241 1325 1813 
L 1325 0 
L 447 0 
L 447 2625 
Q 447 2897 439 3070 
Q 431 3244 422 3381 
L 1259 3381 
Q 1269 3322 1284 3064 
Q 1300 2806 1300 2709 
L 1313 2709 
Q 1491 3097 1759 3272 
Q 2028 3447 2400 3447 
Q 2938 3447 3225 3115 
Q 3513 2784 3513 2147 
L 3513 0 
L 2638 0 
z
" transform="scale(0.015625)"/>
      <path id="LiberationSans-Bold-74" d="M 1313 -56 
Q 925 -56 715 155 
Q 506 366 506 794 
L 506 2788 
L 78 2788 
L 78 3381 
L 550 3381 
L 825 4175 
L 1375 4175 
L 1375 3381 
L 2016 3381 
L 2016 2788 
L 1375 2788 
L 1375 1031 
Q 1375 784 1469 667 
Q 1563 550 1759 550 
Q 1863 550 2053 594 
L 2053 50 
Q 1728 -56 1313 -56 
z
" transform="scale(0.015625)"/>
      <path id="LiberationSans-Bold-69" d="M 447 3991 
L 447 4638 
L 1325 4638 
L 1325 3991 
L 447 3991 
z
M 447 0 
L 447 3381 
L 1325 3381 
L 1325 0 
L 447 0 
z
" transform="scale(0.015625)"/>
      <path id="LiberationSans-Bold-61" d="M 1228 -63 
Q 738 -63 463 204 
Q 188 472 188 956 
Q 188 1481 530 1756 
Q 872 2031 1522 2038 
L 2250 2050 
L 2250 2222 
Q 2250 2553 2134 2714 
Q 2019 2875 1756 2875 
Q 1513 2875 1398 2764 
Q 1284 2653 1256 2397 
L 341 2441 
Q 425 2934 792 3189 
Q 1159 3444 1794 3444 
Q 2434 3444 2781 3128 
Q 3128 2813 3128 2231 
L 3128 1000 
Q 3128 716 3192 608 
Q 3256 500 3406 500 
Q 3506 500 3600 519 
L 3600 44 
Q 3522 25 3459 9 
Q 3397 -6 3334 -15 
Q 3272 -25 3201 -31 
Q 3131 -38 3038 -38 
Q 2706 -38 2548 125 
Q 2391 288 2359 603 
L 2341 603 
Q 1972 -63 1228 -63 
z
M 2250 1566 
L 1800 1559 
Q 1494 1547 1366 1492 
Q 1238 1438 1170 1325 
Q 1103 1213 1103 1025 
Q 1103 784 1214 667 
Q 1325 550 1509 550 
Q 1716 550 1886 662 
Q 2056 775 2153 973 
Q 2250 1172 2250 1394 
L 2250 1566 
z
" transform="scale(0.015625)"/>
      <path id="LiberationSans-Bold-6c" d="M 447 0 
L 447 4638 
L 1325 4638 
L 1325 0 
L 447 0 
z
" transform="scale(0.015625)"/>
      <path id="LiberationSans-Bold-20" transform="scale(0.015625)"/>
      <path id="LiberationSans-Bold-52" d="M 3453 0 
L 2431 1672 
L 1350 1672 
L 1350 0 
L 428 0 
L 428 4403 
L 2628 4403 
Q 3416 4403 3844 4064 
Q 4272 3725 4272 3091 
Q 4272 2628 4009 2292 
Q 3747 1956 3300 1850 
L 4491 0 
L 3453 0 
z
M 3344 3053 
Q 3344 3688 2531 3688 
L 1350 3688 
L 1350 2388 
L 2556 2388 
Q 2944 2388 3144 2563 
Q 3344 2738 3344 3053 
z
" transform="scale(0.015625)"/>
      <path id="LiberationSans-Bold-64" d="M 2638 0 
Q 2625 47 2608 236 
Q 2591 425 2591 550 
L 2578 550 
Q 2294 -63 1497 -63 
Q 906 -63 584 398 
Q 263 859 263 1688 
Q 263 2528 602 2986 
Q 941 3444 1563 3444 
Q 1922 3444 2183 3294 
Q 2444 3144 2584 2847 
L 2591 2847 
L 2584 3403 
L 2584 4638 
L 3463 4638 
L 3463 738 
Q 3463 425 3488 0 
L 2638 0 
z
M 2597 1709 
Q 2597 2256 2414 2551 
Q 2231 2847 1875 2847 
Q 1522 2847 1350 2561 
Q 1178 2275 1178 1688 
Q 1178 538 1869 538 
Q 2216 538 2406 842 
Q 2597 1147 2597 1709 
z
" transform="scale(0.015625)"/>
     </defs>
     <use xlink:href="#LiberationSans-Bold-53"/>
     <use xlink:href="#LiberationSans-Bold-65" transform="translate(66.699219 0)"/>
     <use xlink:href="#LiberationSans-Bold-71" transform="translate(122.314453 0)"/>
     <use xlink:href="#LiberationSans-Bold-75" transform="translate(183.398438 0)"/>
     <use xlink:href="#LiberationSans-Bold-65" transform="translate(244.482422 0)"/>
     <use xlink:href="#LiberationSans-Bold-6e" transform="translate(300.097656 0)"/>
     <use xlink:href="#LiberationSans-Bold-74" transform="translate(361.181641 0)"/>
     <use xlink:href="#LiberationSans-Bold-69" transform="translate(394.482422 0)"/>
     <use xlink:href="#LiberationSans-Bold-61" transform="translate(422.265625 0)"/>
     <use xlink:href="#LiberationSans-Bold-6c" transform="translate(477.880859 0)"/>
     <use xlink:href="#LiberationSans-Bold-20" transform="translate(505.664062 0)"/>
     <use xlink:href="#LiberationSans-Bold-52" transform="translate(533.447266 0)"/>
     <use xlink:href="#LiberationSans-Bold-65" transform="translate(605.664062 0)"/>
     <use xlink:href="#LiberationSans-Bold-61" transform="translate(661.279297 0)"/>
     <use xlink:href="#LiberationSans-Bold-64" transform="translate(716.894531 0)"/>
    </g>
   </g>
   <g id="LineCollection_1">
    <path d="M 452.16938 82.582816 
L 452.606762 82.582816 
" clip-path="url(#p405c5b3995)" style="fill: none; stroke: #111827; stroke-opacity: 0.78; stroke-width: 1.7"/>
   </g>
   <g id="line2d_35">
    <defs>
     <path id="m344f300d6b" d="M 0 4 
L 0 -4 
" style="stroke: #111827; stroke-opacity: 0.78; stroke-width: 1.7"/>
    </defs>
    <g clip-path="url(#p405c5b3995)">
     <use xlink:href="#m344f300d6b" x="452.16938" y="82.582816" style="fill: #1f77b4; fill-opacity: 0.78; stroke: #111827; stroke-opacity: 0.78; stroke-width: 1.7"/>
    </g>
   </g>
   <g id="line2d_36">
    <g clip-path="url(#p405c5b3995)">
     <use xlink:href="#m344f300d6b" x="452.606762" y="82.582816" style="fill: #1f77b4; fill-opacity: 0.78; stroke: #111827; stroke-opacity: 0.78; stroke-width: 1.7"/>
    </g>
   </g>
   <g id="LineCollection_2">
    <path d="M 433.396125 140.173565 
L 434.009347 140.173565 
" clip-path="url(#p405c5b3995)" style="fill: none; stroke: #111827; stroke-opacity: 0.6; stroke-width: 1.45"/>
   </g>
   <g id="line2d_37">
    <defs>
     <path id="m3c0627e2c6" d="M 0 3.2 
L 0 -3.2 
" style="stroke: #111827; stroke-opacity: 0.6; stroke-width: 1.45"/>
    </defs>
    <g clip-path="url(#p405c5b3995)">
     <use xlink:href="#m3c0627e2c6" x="433.396125" y="140.173565" style="fill: #1f77b4; fill-opacity: 0.6; stroke: #111827; stroke-opacity: 0.6; stroke-width: 1.45"/>
    </g>
   </g>
   <g id="line2d_38">
    <g clip-path="url(#p405c5b3995)">
     <use xlink:href="#m3c0627e2c6" x="434.009347" y="140.173565" style="fill: #1f77b4; fill-opacity: 0.6; stroke: #111827; stroke-opacity: 0.6; stroke-width: 1.45"/>
    </g>
   </g>
   <g id="LineCollection_3">
    <path d="M 379.83685 197.764313 
L 383.566972 197.764313 
" clip-path="url(#p405c5b3995)" style="fill: none; stroke: #111827; stroke-opacity: 0.6; stroke-width: 1.45"/>
   </g>
   <g id="line2d_39">
    <g clip-path="url(#p405c5b3995)">
     <use xlink:href="#m3c0627e2c6" x="379.83685" y="197.764313" style="fill: #1f77b4; fill-opacity: 0.6; stroke: #111827; stroke-opacity: 0.6; stroke-width: 1.45"/>
    </g>
   </g>
   <g id="line2d_40">
    <g clip-path="url(#p405c5b3995)">
     <use xlink:href="#m3c0627e2c6" x="383.566972" y="197.764313" style="fill: #1f77b4; fill-opacity: 0.6; stroke: #111827; stroke-opacity: 0.6; stroke-width: 1.45"/>
    </g>
   </g>
   <g id="LineCollection_4">
    <path d="M 355.176431 255.355062 
L 356.002232 255.355062 
" clip-path="url(#p405c5b3995)" style="fill: none; stroke: #111827; stroke-opacity: 0.6; stroke-width: 1.45"/>
   </g>
   <g id="line2d_41">
    <g clip-path="url(#p405c5b3995)">
     <use xlink:href="#m3c0627e2c6" x="355.176431" y="255.355062" style="fill: #1f77b4; fill-opacity: 0.6; stroke: #111827; stroke-opacity: 0.6; stroke-width: 1.45"/>
    </g>
   </g>
   <g id="line2d_42">
    <g clip-path="url(#p405c5b3995)">
     <use xlink:href="#m3c0627e2c6" x="356.002232" y="255.355062" style="fill: #1f77b4; fill-opacity: 0.6; stroke: #111827; stroke-opacity: 0.6; stroke-width: 1.45"/>
    </g>
   </g>
   <g id="LineCollection_5">
    <path d="M 161.709187 312.94581 
L 162.116939 312.94581 
" clip-path="url(#p405c5b3995)" style="fill: none; stroke: #111827; stroke-opacity: 0.6; stroke-width: 1.35"/>
   </g>
   <g id="line2d_43">
    <defs>
     <path id="m851665fd4c" d="M 0 3.2 
L 0 -3.2 
" style="stroke: #111827; stroke-opacity: 0.6; stroke-width: 1.35"/>
    </defs>
    <g clip-path="url(#p405c5b3995)">
     <use xlink:href="#m851665fd4c" x="161.709187" y="312.94581" style="fill: #1f77b4; fill-opacity: 0.6; stroke: #111827; stroke-opacity: 0.6; stroke-width: 1.35"/>
    </g>
   </g>
   <g id="line2d_44">
    <g clip-path="url(#p405c5b3995)">
     <use xlink:href="#m851665fd4c" x="162.116939" y="312.94581" style="fill: #1f77b4; fill-opacity: 0.6; stroke: #111827; stroke-opacity: 0.6; stroke-width: 1.35"/>
    </g>
   </g>
   <g id="LineCollection_6">
    <path d="M 105.39723 370.536559 
L 106.436971 370.536559 
" clip-path="url(#p405c5b3995)" style="fill: none; stroke: #111827; stroke-opacity: 0.6; stroke-width: 1.35"/>
   </g>
   <g id="line2d_45">
    <g clip-path="url(#p405c5b3995)">
     <use xlink:href="#m851665fd4c" x="105.39723" y="370.536559" style="fill: #1f77b4; fill-opacity: 0.6; stroke: #111827; stroke-opacity: 0.6; stroke-width: 1.35"/>
    </g>
   </g>
   <g id="line2d_46">
    <g clip-path="url(#p405c5b3995)">
     <use xlink:href="#m851665fd4c" x="106.436971" y="370.536559" style="fill: #1f77b4; fill-opacity: 0.6; stroke: #111827; stroke-opacity: 0.6; stroke-width: 1.35"/>
    </g>
   </g>
  </g>
  <g id="axes_2">
   <g id="patch_9">
    <path d="M 569.189766 405.839687 
L 965.189766 405.839687 
L 965.189766 47.279687 
L 569.189766 47.279687 
z
" style="fill: #fbfbfd"/>
   </g>
   <g id="matplotlib.axis_3">
    <g id="xtick_26">
     <g id="line2d_47">
      <path d="M 581.11319 405.839687 
L 581.11319 47.279687 
" clip-path="url(#p5e3f560b13)" style="fill: none; stroke-dasharray: 2.035,0.88; stroke-dashoffset: 0; stroke: #e5e7eb; stroke-opacity: 0.35; stroke-width: 0.55"/>
     </g>
     <g id="line2d_48"/>
     <g id="text_18">
      <!-- 100K -->
      <g style="fill: #6b7280" transform="translate(568.8528 419.448906) scale(0.105 -0.105)">
       <use xlink:href="#LiberationSans-31"/>
       <use xlink:href="#LiberationSans-30" transform="translate(55.615234 0)"/>
       <use xlink:href="#LiberationSans-30" transform="translate(111.230469 0)"/>
       <use xlink:href="#LiberationSans-4b" transform="translate(166.845703 0)"/>
      </g>
     </g>
    </g>
    <g id="xtick_27">
     <g id="line2d_49">
      <path d="M 724.639149 405.839687 
L 724.639149 47.279687 
" clip-path="url(#p5e3f560b13)" style="fill: none; stroke-dasharray: 2.035,0.88; stroke-dashoffset: 0; stroke: #e5e7eb; stroke-opacity: 0.35; stroke-width: 0.55"/>
     </g>
     <g id="line2d_50"/>
     <g id="text_19">
      <!-- 1.0M -->
      <g style="fill: #6b7280" transform="translate(712.968563 419.448906) scale(0.105 -0.105)">
       <use xlink:href="#LiberationSans-31"/>
       <use xlink:href="#LiberationSans-2e" transform="translate(55.615234 0)"/>
       <use xlink:href="#LiberationSans-30" transform="translate(83.398438 0)"/>
       <use xlink:href="#LiberationSans-4d" transform="translate(139.013672 0)"/>
      </g>
     </g>
    </g>
    <g id="xtick_28">
     <g id="line2d_51">
      <path d="M 868.165108 405.839687 
L 868.165108 47.279687 
" clip-path="url(#p5e3f560b13)" style="fill: none; stroke-dasharray: 2.035,0.88; stroke-dashoffset: 0; stroke: #e5e7eb; stroke-opacity: 0.35; stroke-width: 0.55"/>
     </g>
     <g id="line2d_52"/>
     <g id="text_20">
      <!-- 10.0M -->
      <g style="fill: #6b7280" transform="translate(853.57503 419.448906) scale(0.105 -0.105)">
       <use xlink:href="#LiberationSans-31"/>
       <use xlink:href="#LiberationSans-30" transform="translate(55.615234 0)"/>
       <use xlink:href="#LiberationSans-2e" transform="translate(111.230469 0)"/>
       <use xlink:href="#LiberationSans-30" transform="translate(139.013672 0)"/>
       <use xlink:href="#LiberationSans-4d" transform="translate(194.628906 0)"/>
      </g>
     </g>
    </g>
    <g id="xtick_29">
     <g id="line2d_53">
      <g>
       <use xlink:href="#m93af2abcc7" x="574.545803" y="405.839687" style="fill: #6b7280; stroke: #6b7280; stroke-width: 0.6"/>
      </g>
     </g>
    </g>
    <g id="xtick_30">
     <g id="line2d_54">
      <g>
       <use xlink:href="#m93af2abcc7" x="624.318809" y="405.839687" style="fill: #6b7280; stroke: #6b7280; stroke-width: 0.6"/>
      </g>
     </g>
    </g>
    <g id="xtick_31">
     <g id="line2d_55">
      <g>
       <use xlink:href="#m93af2abcc7" x="649.592476" y="405.839687" style="fill: #6b7280; stroke: #6b7280; stroke-width: 0.6"/>
      </g>
     </g>
    </g>
    <g id="xtick_32">
     <g id="line2d_56">
      <g>
       <use xlink:href="#m93af2abcc7" x="667.524428" y="405.839687" style="fill: #6b7280; stroke: #6b7280; stroke-width: 0.6"/>
      </g>
     </g>
    </g>
    <g id="xtick_33">
     <g id="line2d_57">
      <g>
       <use xlink:href="#m93af2abcc7" x="681.43353" y="405.839687" style="fill: #6b7280; stroke: #6b7280; stroke-width: 0.6"/>
      </g>
     </g>
    </g>
    <g id="xtick_34">
     <g id="line2d_58">
      <g>
       <use xlink:href="#m93af2abcc7" x="692.798095" y="405.839687" style="fill: #6b7280; stroke: #6b7280; stroke-width: 0.6"/>
      </g>
     </g>
    </g>
    <g id="xtick_35">
     <g id="line2d_59">
      <g>
       <use xlink:href="#m93af2abcc7" x="702.406697" y="405.839687" style="fill: #6b7280; stroke: #6b7280; stroke-width: 0.6"/>
      </g>
     </g>
    </g>
    <g id="xtick_36">
     <g id="line2d_60">
      <g>
       <use xlink:href="#m93af2abcc7" x="710.730047" y="405.839687" style="fill: #6b7280; stroke: #6b7280; stroke-width: 0.6"/>
      </g>
     </g>
    </g>
    <g id="xtick_37">
     <g id="line2d_61">
      <g>
       <use xlink:href="#m93af2abcc7" x="718.071761" y="405.839687" style="fill: #6b7280; stroke: #6b7280; stroke-width: 0.6"/>
      </g>
     </g>
    </g>
    <g id="xtick_38">
     <g id="line2d_62">
      <g>
       <use xlink:href="#m93af2abcc7" x="767.844768" y="405.839687" style="fill: #6b7280; stroke: #6b7280; stroke-width: 0.6"/>
      </g>
     </g>
    </g>
    <g id="xtick_39">
     <g id="line2d_63">
      <g>
       <use xlink:href="#m93af2abcc7" x="793.118435" y="405.839687" style="fill: #6b7280; stroke: #6b7280; stroke-width: 0.6"/>
      </g>
     </g>
    </g>
    <g id="xtick_40">
     <g id="line2d_64">
      <g>
       <use xlink:href="#m93af2abcc7" x="811.050387" y="405.839687" style="fill: #6b7280; stroke: #6b7280; stroke-width: 0.6"/>
      </g>
     </g>
    </g>
    <g id="xtick_41">
     <g id="line2d_65">
      <g>
       <use xlink:href="#m93af2abcc7" x="824.959489" y="405.839687" style="fill: #6b7280; stroke: #6b7280; stroke-width: 0.6"/>
      </g>
     </g>
    </g>
    <g id="xtick_42">
     <g id="line2d_66">
      <g>
       <use xlink:href="#m93af2abcc7" x="836.324053" y="405.839687" style="fill: #6b7280; stroke: #6b7280; stroke-width: 0.6"/>
      </g>
     </g>
    </g>
    <g id="xtick_43">
     <g id="line2d_67">
      <g>
       <use xlink:href="#m93af2abcc7" x="845.932655" y="405.839687" style="fill: #6b7280; stroke: #6b7280; stroke-width: 0.6"/>
      </g>
     </g>
    </g>
    <g id="xtick_44">
     <g id="line2d_68">
      <g>
       <use xlink:href="#m93af2abcc7" x="854.256005" y="405.839687" style="fill: #6b7280; stroke: #6b7280; stroke-width: 0.6"/>
      </g>
     </g>
    </g>
    <g id="xtick_45">
     <g id="line2d_69">
      <g>
       <use xlink:href="#m93af2abcc7" x="861.59772" y="405.839687" style="fill: #6b7280; stroke: #6b7280; stroke-width: 0.6"/>
      </g>
     </g>
    </g>
    <g id="xtick_46">
     <g id="line2d_70">
      <g>
       <use xlink:href="#m93af2abcc7" x="911.370727" y="405.839687" style="fill: #6b7280; stroke: #6b7280; stroke-width: 0.6"/>
      </g>
     </g>
    </g>
    <g id="xtick_47">
     <g id="line2d_71">
      <g>
       <use xlink:href="#m93af2abcc7" x="936.644393" y="405.839687" style="fill: #6b7280; stroke: #6b7280; stroke-width: 0.6"/>
      </g>
     </g>
    </g>
    <g id="xtick_48">
     <g id="line2d_72">
      <g>
       <use xlink:href="#m93af2abcc7" x="954.576345" y="405.839687" style="fill: #6b7280; stroke: #6b7280; stroke-width: 0.6"/>
      </g>
     </g>
    </g>
    <g id="text_21">
     <!-- atoms/s -->
     <g style="fill: #111827" transform="translate(745.309883 434.68625) scale(0.125 -0.125)">
      <use xlink:href="#LiberationSans-61"/>
      <use xlink:href="#LiberationSans-74" transform="translate(55.615234 0)"/>
      <use xlink:href="#LiberationSans-6f" transform="translate(83.398438 0)"/>
      <use xlink:href="#LiberationSans-6d" transform="translate(139.013672 0)"/>
      <use xlink:href="#LiberationSans-73" transform="translate(222.314453 0)"/>
      <use xlink:href="#LiberationSans-2f" transform="translate(272.314453 0)"/>
      <use xlink:href="#LiberationSans-73" transform="translate(300.097656 0)"/>
     </g>
    </g>
   </g>
   <g id="matplotlib.axis_4">
    <g id="ytick_7">
     <g id="line2d_73"/>
     <g id="text_22">
      <!-- Atompack -->
      <g style="fill: #111827" transform="translate(516.505781 86.387426) scale(0.105 -0.105)">
       <use xlink:href="#LiberationSans-41"/>
       <use xlink:href="#LiberationSans-74" transform="translate(66.699219 0)"/>
       <use xlink:href="#LiberationSans-6f" transform="translate(94.482422 0)"/>
       <use xlink:href="#LiberationSans-6d" transform="translate(150.097656 0)"/>
       <use xlink:href="#LiberationSans-70" transform="translate(233.398438 0)"/>
       <use xlink:href="#LiberationSans-61" transform="translate(289.013672 0)"/>
       <use xlink:href="#LiberationSans-63" transform="translate(344.628906 0)"/>
       <use xlink:href="#LiberationSans-6b" transform="translate(394.628906 0)"/>
      </g>
     </g>
    </g>
    <g id="ytick_8">
     <g id="line2d_74"/>
     <g id="text_23">
      <!-- LMDB Packed -->
      <g style="fill: #6b7280" transform="translate(496.08 143.978174) scale(0.105 -0.105)">
       <use xlink:href="#LiberationSans-4c"/>
       <use xlink:href="#LiberationSans-4d" transform="translate(55.615234 0)"/>
       <use xlink:href="#LiberationSans-44" transform="translate(138.916016 0)"/>
       <use xlink:href="#LiberationSans-42" transform="translate(211.132812 0)"/>
       <use xlink:href="#LiberationSans-20" transform="translate(277.832031 0)"/>
       <use xlink:href="#LiberationSans-50" transform="translate(305.615234 0)"/>
       <use xlink:href="#LiberationSans-61" transform="translate(372.314453 0)"/>
       <use xlink:href="#LiberationSans-63" transform="translate(427.929688 0)"/>
       <use xlink:href="#LiberationSans-6b" transform="translate(477.929688 0)"/>
       <use xlink:href="#LiberationSans-65" transform="translate(527.929688 0)"/>
       <use xlink:href="#LiberationSans-64" transform="translate(583.544922 0)"/>
      </g>
     </g>
    </g>
    <g id="ytick_9">
     <g id="line2d_75"/>
     <g id="text_24">
      <!-- LMDB Pickle -->
      <g style="fill: #6b7280" transform="translate(503.092031 201.568923) scale(0.105 -0.105)">
       <use xlink:href="#LiberationSans-4c"/>
       <use xlink:href="#LiberationSans-4d" transform="translate(55.615234 0)"/>
       <use xlink:href="#LiberationSans-44" transform="translate(138.916016 0)"/>
       <use xlink:href="#LiberationSans-42" transform="translate(211.132812 0)"/>
       <use xlink:href="#LiberationSans-20" transform="translate(277.832031 0)"/>
       <use xlink:href="#LiberationSans-50" transform="translate(305.615234 0)"/>
       <use xlink:href="#LiberationSans-69" transform="translate(372.314453 0)"/>
       <use xlink:href="#LiberationSans-63" transform="translate(394.53125 0)"/>
       <use xlink:href="#LiberationSans-6b" transform="translate(444.53125 0)"/>
       <use xlink:href="#LiberationSans-6c" transform="translate(494.53125 0)"/>
       <use xlink:href="#LiberationSans-65" transform="translate(516.748047 0)"/>
      </g>
     </g>
    </g>
    <g id="ytick_10">
     <g id="line2d_76"/>
     <g id="text_25">
      <!-- HDF5 SOA -->
      <g style="fill: #6b7280" transform="translate(510.679922 259.159671) scale(0.105 -0.105)">
       <use xlink:href="#LiberationSans-48"/>
       <use xlink:href="#LiberationSans-44" transform="translate(72.216797 0)"/>
       <use xlink:href="#LiberationSans-46" transform="translate(144.433594 0)"/>
       <use xlink:href="#LiberationSans-35" transform="translate(205.517578 0)"/>
       <use xlink:href="#LiberationSans-20" transform="translate(261.132812 0)"/>
       <use xlink:href="#LiberationSans-53" transform="translate(288.916016 0)"/>
       <use xlink:href="#LiberationSans-4f" transform="translate(355.615234 0)"/>
       <use xlink:href="#LiberationSans-41" transform="translate(433.398438 0)"/>
      </g>
     </g>
    </g>
    <g id="ytick_11">
     <g id="line2d_77"/>
     <g id="text_26">
      <!-- ASE LMDB -->
      <g style="fill: #6b7280" transform="translate(510.089297 316.75042) scale(0.105 -0.105)">
       <use xlink:href="#LiberationSans-41"/>
       <use xlink:href="#LiberationSans-53" transform="translate(66.699219 0)"/>
       <use xlink:href="#LiberationSans-45" transform="translate(133.398438 0)"/>
       <use xlink:href="#LiberationSans-20" transform="translate(200.097656 0)"/>
       <use xlink:href="#LiberationSans-4c" transform="translate(227.880859 0)"/>
       <use xlink:href="#LiberationSans-4d" transform="translate(283.496094 0)"/>
       <use xlink:href="#LiberationSans-44" transform="translate(366.796875 0)"/>
       <use xlink:href="#LiberationSans-42" transform="translate(439.013672 0)"/>
      </g>
     </g>
    </g>
    <g id="ytick_12">
     <g id="line2d_78"/>
     <g id="text_27">
      <!-- ASE SQLite -->
      <g style="fill: #6b7280" transform="translate(507.162422 374.341168) scale(0.105 -0.105)">
       <use xlink:href="#LiberationSans-41"/>
       <use xlink:href="#LiberationSans-53" transform="translate(66.699219 0)"/>
       <use xlink:href="#LiberationSans-45" transform="translate(133.398438 0)"/>
       <use xlink:href="#LiberationSans-20" transform="translate(200.097656 0)"/>
       <use xlink:href="#LiberationSans-53" transform="translate(227.880859 0)"/>
       <use xlink:href="#LiberationSans-51" transform="translate(294.580078 0)"/>
       <use xlink:href="#LiberationSans-4c" transform="translate(372.363281 0)"/>
       <use xlink:href="#LiberationSans-69" transform="translate(427.978516 0)"/>
       <use xlink:href="#LiberationSans-74" transform="translate(450.195312 0)"/>
       <use xlink:href="#LiberationSans-65" transform="translate(477.978516 0)"/>
      </g>
     </g>
    </g>
   </g>
   <g id="patch_10">
    <path d="M -143662.475318 63.577869 
L 933.519587 63.577869 
L 933.519587 101.587763 
L -143662.475318 101.587763 
z
" clip-path="url(#p5e3f560b13)" style="fill: #4f2af5; stroke: #6d28d9; stroke-width: 1.4; stroke-linejoin: miter"/>
   </g>
   <g id="patch_11">
    <path d="M -143662.475318 121.168618 
L 869.201903 121.168618 
L 869.201903 159.178512 
L -143662.475318 159.178512 
z
" clip-path="url(#p5e3f560b13)" style="fill: #d14bbf"/>
   </g>
   <g id="patch_12">
    <path d="M -143662.475318 178.759366 
L 849.908884 178.759366 
L 849.908884 216.76926 
L -143662.475318 216.76926 
z
" clip-path="url(#p5e3f560b13)" style="fill: #f05a8a"/>
   </g>
   <g id="patch_13">
    <path d="M -143662.475318 236.350115 
L 735.399708 236.350115 
L 735.399708 274.360009 
L -143662.475318 274.360009 
z
" clip-path="url(#p5e3f560b13)" style="fill: #b03edc"/>
   </g>
   <g id="patch_14">
    <path d="M -143662.475318 293.940863 
L 648.68803 293.940863 
L 648.68803 331.950757 
L -143662.475318 331.950757 
z
" clip-path="url(#p5e3f560b13)" style="fill: #8a7db2"/>
   </g>
   <g id="patch_15">
    <path d="M -143662.475318 351.531612 
L 590.028993 351.531612 
L 590.028993 389.541506 
L -143662.475318 389.541506 
z
" clip-path="url(#p5e3f560b13)" style="fill: #a98bc8"/>
   </g>
   <g id="text_28">
    <!-- 28.5M -->
    <g style="fill: #4f2af5" transform="translate(937.016388 85.427348) scale(0.11 -0.11)">
     <defs>
      <path id="LiberationSans-Bold-32" d="M 222 0 
L 222 609 
Q 394 988 711 1347 
Q 1028 1706 1509 2097 
Q 1972 2472 2158 2715 
Q 2344 2959 2344 3194 
Q 2344 3769 1766 3769 
Q 1484 3769 1336 3617 
Q 1188 3466 1144 3163 
L 259 3213 
Q 334 3825 717 4147 
Q 1100 4469 1759 4469 
Q 2472 4469 2853 4144 
Q 3234 3819 3234 3231 
Q 3234 2922 3112 2672 
Q 2991 2422 2800 2211 
Q 2609 2000 2376 1815 
Q 2144 1631 1925 1456 
Q 1706 1281 1526 1103 
Q 1347 925 1259 722 
L 3303 722 
L 3303 0 
L 222 0 
z
" transform="scale(0.015625)"/>
      <path id="LiberationSans-Bold-38" d="M 3363 1241 
Q 3363 622 2953 279 
Q 2544 -63 1784 -63 
Q 1031 -63 617 278 
Q 203 619 203 1234 
Q 203 1656 447 1945 
Q 691 2234 1100 2303 
L 1100 2316 
Q 744 2394 525 2669 
Q 306 2944 306 3303 
Q 306 3844 689 4156 
Q 1072 4469 1772 4469 
Q 2488 4469 2870 4164 
Q 3253 3859 3253 3297 
Q 3253 2938 3036 2666 
Q 2819 2394 2453 2322 
L 2453 2309 
Q 2878 2241 3120 1961 
Q 3363 1681 3363 1241 
z
M 2350 3250 
Q 2350 3563 2206 3708 
Q 2063 3853 1772 3853 
Q 1203 3853 1203 3250 
Q 1203 2619 1778 2619 
Q 2066 2619 2208 2766 
Q 2350 2913 2350 3250 
z
M 2453 1313 
Q 2453 2003 1766 2003 
Q 1447 2003 1276 1822 
Q 1106 1641 1106 1300 
Q 1106 913 1275 734 
Q 1444 556 1791 556 
Q 2131 556 2292 734 
Q 2453 913 2453 1313 
z
" transform="scale(0.015625)"/>
      <path id="LiberationSans-Bold-35" d="M 3381 1466 
Q 3381 766 2945 351 
Q 2509 -63 1750 -63 
Q 1088 -63 689 235 
Q 291 534 197 1100 
L 1075 1172 
Q 1144 891 1319 762 
Q 1494 634 1759 634 
Q 2088 634 2283 843 
Q 2478 1053 2478 1447 
Q 2478 1794 2293 2001 
Q 2109 2209 1778 2209 
Q 1413 2209 1181 1925 
L 325 1925 
L 478 4403 
L 3125 4403 
L 3125 3750 
L 1275 3750 
L 1203 2638 
Q 1522 2919 2000 2919 
Q 2628 2919 3004 2528 
Q 3381 2138 3381 1466 
z
" transform="scale(0.015625)"/>
     </defs>
     <use xlink:href="#LiberationSans-Bold-32"/>
     <use xlink:href="#LiberationSans-Bold-38" transform="translate(55.615234 0)"/>
     <use xlink:href="#LiberationSans-Bold-2e" transform="translate(111.230469 0)"/>
     <use xlink:href="#LiberationSans-Bold-35" transform="translate(139.013672 0)"/>
     <use xlink:href="#LiberationSans-Bold-4d" transform="translate(194.628906 0)"/>
    </g>
   </g>
   <g id="text_29">
    <!-- 10.2M -->
    <g style="fill: #d14bbf" transform="translate(872.665878 143.018096) scale(0.11 -0.11)">
     <use xlink:href="#LiberationSans-31"/>
     <use xlink:href="#LiberationSans-30" transform="translate(55.615234 0)"/>
     <use xlink:href="#LiberationSans-2e" transform="translate(111.230469 0)"/>
     <use xlink:href="#LiberationSans-32" transform="translate(139.013672 0)"/>
     <use xlink:href="#LiberationSans-4d" transform="translate(194.628906 0)"/>
    </g>
   </g>
   <g id="text_30">
    <!-- 7.5M -->
    <g style="fill: #f05a8a" transform="translate(853.272048 200.608845) scale(0.11 -0.11)">
     <use xlink:href="#LiberationSans-37"/>
     <use xlink:href="#LiberationSans-2e" transform="translate(55.615234 0)"/>
     <use xlink:href="#LiberationSans-35" transform="translate(83.398438 0)"/>
     <use xlink:href="#LiberationSans-4d" transform="translate(139.013672 0)"/>
    </g>
   </g>
   <g id="text_31">
    <!-- 1.2M -->
    <g style="fill: #b03edc" transform="translate(738.765843 258.199593) scale(0.11 -0.11)">
     <use xlink:href="#LiberationSans-31"/>
     <use xlink:href="#LiberationSans-2e" transform="translate(55.615234 0)"/>
     <use xlink:href="#LiberationSans-32" transform="translate(83.398438 0)"/>
     <use xlink:href="#LiberationSans-4d" transform="translate(139.013672 0)"/>
    </g>
   </g>
   <g id="text_32">
    <!-- 296K -->
    <g style="fill: #8a7db2" transform="translate(652.325264 315.790341) scale(0.11 -0.11)">
     <defs>
      <path id="LiberationSans-36" d="M 3278 1441 
Q 3278 744 2900 340 
Q 2522 -63 1856 -63 
Q 1113 -63 719 490 
Q 325 1044 325 2100 
Q 325 3244 734 3856 
Q 1144 4469 1900 4469 
Q 2897 4469 3156 3572 
L 2619 3475 
Q 2453 4013 1894 4013 
Q 1413 4013 1148 3564 
Q 884 3116 884 2266 
Q 1038 2550 1316 2698 
Q 1594 2847 1953 2847 
Q 2563 2847 2920 2465 
Q 3278 2084 3278 1441 
z
M 2706 1416 
Q 2706 1894 2472 2153 
Q 2238 2413 1819 2413 
Q 1425 2413 1183 2183 
Q 941 1953 941 1550 
Q 941 1041 1192 716 
Q 1444 391 1838 391 
Q 2244 391 2475 664 
Q 2706 938 2706 1416 
z
" transform="scale(0.015625)"/>
     </defs>
     <use xlink:href="#LiberationSans-32"/>
     <use xlink:href="#LiberationSans-39" transform="translate(55.615234 0)"/>
     <use xlink:href="#LiberationSans-36" transform="translate(111.230469 0)"/>
     <use xlink:href="#LiberationSans-4b" transform="translate(166.845703 0)"/>
    </g>
   </g>
   <g id="text_33">
    <!-- 115K -->
    <g style="fill: #a98bc8" transform="translate(593.430846 373.38109) scale(0.11 -0.11)">
     <use xlink:href="#LiberationSans-31"/>
     <use xlink:href="#LiberationSans-31" transform="translate(48.240234 0)"/>
     <use xlink:href="#LiberationSans-35" transform="translate(103.855469 0)"/>
     <use xlink:href="#LiberationSans-4b" transform="translate(159.470703 0)"/>
    </g>
   </g>
   <g id="text_34">
    <!-- Random Read -->
    <g style="fill: #111827" transform="translate(710.045859 25.279687) scale(0.17 -0.17)">
     <defs>
      <path id="LiberationSans-Bold-6f" d="M 3659 1694 
Q 3659 872 3203 404 
Q 2747 -63 1941 -63 
Q 1150 -63 700 406 
Q 250 875 250 1694 
Q 250 2509 700 2976 
Q 1150 3444 1959 3444 
Q 2788 3444 3223 2992 
Q 3659 2541 3659 1694 
z
M 2741 1694 
Q 2741 2297 2544 2569 
Q 2347 2841 1972 2841 
Q 1172 2841 1172 1694 
Q 1172 1128 1367 833 
Q 1563 538 1931 538 
Q 2741 538 2741 1694 
z
" transform="scale(0.015625)"/>
      <path id="LiberationSans-Bold-6d" d="M 2438 0 
L 2438 1897 
Q 2438 2788 1925 2788 
Q 1659 2788 1492 2516 
Q 1325 2244 1325 1813 
L 1325 0 
L 447 0 
L 447 2625 
Q 447 2897 439 3070 
Q 431 3244 422 3381 
L 1259 3381 
Q 1269 3322 1284 3064 
Q 1300 2806 1300 2709 
L 1313 2709 
Q 1475 3097 1717 3272 
Q 1959 3447 2297 3447 
Q 3072 3447 3238 2709 
L 3256 2709 
Q 3428 3103 3668 3275 
Q 3909 3447 4281 3447 
Q 4775 3447 5034 3111 
Q 5294 2775 5294 2147 
L 5294 0 
L 4422 0 
L 4422 1897 
Q 4422 2788 3909 2788 
Q 3653 2788 3489 2539 
Q 3325 2291 3309 1853 
L 3309 0 
L 2438 0 
z
" transform="scale(0.015625)"/>
     </defs>
     <use xlink:href="#LiberationSans-Bold-52"/>
     <use xlink:href="#LiberationSans-Bold-61" transform="translate(72.216797 0)"/>
     <use xlink:href="#LiberationSans-Bold-6e" transform="translate(127.832031 0)"/>
     <use xlink:href="#LiberationSans-Bold-64" transform="translate(188.916016 0)"/>
     <use xlink:href="#LiberationSans-Bold-6f" transform="translate(250 0)"/>
     <use xlink:href="#LiberationSans-Bold-6d" transform="translate(311.083984 0)"/>
     <use xlink:href="#LiberationSans-Bold-20" transform="translate(400 0)"/>
     <use xlink:href="#LiberationSans-Bold-52" transform="translate(427.783203 0)"/>
     <use xlink:href="#LiberationSans-Bold-65" transform="translate(500 0)"/>
     <use xlink:href="#LiberationSans-Bold-61" transform="translate(555.615234 0)"/>
     <use xlink:href="#LiberationSans-Bold-64" transform="translate(611.230469 0)"/>
    </g>
   </g>
   <g id="LineCollection_7">
    <path d="M 933.060646 82.582816 
L 933.975174 82.582816 
" clip-path="url(#p5e3f560b13)" style="fill: none; stroke: #111827; stroke-opacity: 0.78; stroke-width: 1.7"/>
   </g>
   <g id="line2d_79">
    <g clip-path="url(#p5e3f560b13)">
     <use xlink:href="#m344f300d6b" x="933.060646" y="82.582816" style="fill: #1f77b4; fill-opacity: 0.78; stroke: #111827; stroke-opacity: 0.78; stroke-width: 1.7"/>
    </g>
   </g>
   <g id="line2d_80">
    <g clip-path="url(#p5e3f560b13)">
     <use xlink:href="#m344f300d6b" x="933.975174" y="82.582816" style="fill: #1f77b4; fill-opacity: 0.78; stroke: #111827; stroke-opacity: 0.78; stroke-width: 1.7"/>
    </g>
   </g>
   <g id="LineCollection_8">
    <path d="M 868.776255 140.173565 
L 869.624664 140.173565 
" clip-path="url(#p5e3f560b13)" style="fill: none; stroke: #111827; stroke-opacity: 0.6; stroke-width: 1.45"/>
   </g>
   <g id="line2d_81">
    <g clip-path="url(#p5e3f560b13)">
     <use xlink:href="#m3c0627e2c6" x="868.776255" y="140.173565" style="fill: #1f77b4; fill-opacity: 0.6; stroke: #111827; stroke-opacity: 0.6; stroke-width: 1.45"/>
    </g>
   </g>
   <g id="line2d_82">
    <g clip-path="url(#p5e3f560b13)">
     <use xlink:href="#m3c0627e2c6" x="869.624664" y="140.173565" style="fill: #1f77b4; fill-opacity: 0.6; stroke: #111827; stroke-opacity: 0.6; stroke-width: 1.45"/>
    </g>
   </g>
   <g id="LineCollection_9">
    <path d="M 849.585263 197.764313 
L 850.230833 197.764313 
" clip-path="url(#p5e3f560b13)" style="fill: none; stroke: #111827; stroke-opacity: 0.6; stroke-width: 1.45"/>
   </g>
   <g id="line2d_83">
    <g clip-path="url(#p5e3f560b13)">
     <use xlink:href="#m3c0627e2c6" x="849.585263" y="197.764313" style="fill: #1f77b4; fill-opacity: 0.6; stroke: #111827; stroke-opacity: 0.6; stroke-width: 1.45"/>
    </g>
   </g>
   <g id="line2d_84">
    <g clip-path="url(#p5e3f560b13)">
     <use xlink:href="#m3c0627e2c6" x="850.230833" y="197.764313" style="fill: #1f77b4; fill-opacity: 0.6; stroke: #111827; stroke-opacity: 0.6; stroke-width: 1.45"/>
    </g>
   </g>
   <g id="LineCollection_10">
    <path d="M 735.073085 255.355062 
L 735.724628 255.355062 
" clip-path="url(#p5e3f560b13)" style="fill: none; stroke: #111827; stroke-opacity: 0.6; stroke-width: 1.45"/>
   </g>
   <g id="line2d_85">
    <g clip-path="url(#p5e3f560b13)">
     <use xlink:href="#m3c0627e2c6" x="735.073085" y="255.355062" style="fill: #1f77b4; fill-opacity: 0.6; stroke: #111827; stroke-opacity: 0.6; stroke-width: 1.45"/>
    </g>
   </g>
   <g id="line2d_86">
    <g clip-path="url(#p5e3f560b13)">
     <use xlink:href="#m3c0627e2c6" x="735.724628" y="255.355062" style="fill: #1f77b4; fill-opacity: 0.6; stroke: #111827; stroke-opacity: 0.6; stroke-width: 1.45"/>
    </g>
   </g>
   <g id="LineCollection_11">
    <path d="M 648.086256 312.94581 
L 649.284049 312.94581 
" clip-path="url(#p5e3f560b13)" style="fill: none; stroke: #111827; stroke-opacity: 0.6; stroke-width: 1.35"/>
   </g>
   <g id="line2d_87">
    <g clip-path="url(#p5e3f560b13)">
     <use xlink:href="#m851665fd4c" x="648.086256" y="312.94581" style="fill: #1f77b4; fill-opacity: 0.6; stroke: #111827; stroke-opacity: 0.6; stroke-width: 1.35"/>
    </g>
   </g>
   <g id="line2d_88">
    <g clip-path="url(#p5e3f560b13)">
     <use xlink:href="#m851665fd4c" x="649.284049" y="312.94581" style="fill: #1f77b4; fill-opacity: 0.6; stroke: #111827; stroke-opacity: 0.6; stroke-width: 1.35"/>
    </g>
   </g>
   <g id="LineCollection_12">
    <path d="M 589.666256 370.536559 
L 590.389632 370.536559 
" clip-path="url(#p5e3f560b13)" style="fill: none; stroke: #111827; stroke-opacity: 0.6; stroke-width: 1.35"/>
   </g>
   <g id="line2d_89">
    <g clip-path="url(#p5e3f560b13)">
     <use xlink:href="#m851665fd4c" x="589.666256" y="370.536559" style="fill: #1f77b4; fill-opacity: 0.6; stroke: #111827; stroke-opacity: 0.6; stroke-width: 1.35"/>
    </g>
   </g>
   <g id="line2d_90">
    <g clip-path="url(#p5e3f560b13)">
     <use xlink:href="#m851665fd4c" x="590.389632" y="370.536559" style="fill: #1f77b4; fill-opacity: 0.6; stroke: #111827; stroke-opacity: 0.6; stroke-width: 1.35"/>
    </g>
   </g>
  </g>
  <g id="line2d_91">
   <path d="M 561.586566 405.839687 
L 561.586566 47.279687 
" style="fill: none; stroke: #e5e7eb; stroke-opacity: 0.4; stroke-width: 0.6; stroke-linecap: square"/>
  </g>
 </g>
 <defs>
  <clipPath id="p405c5b3995">
   <rect x="86.069766" y="47.279687" width="396" height="358.56"/>
  </clipPath>
  <clipPath id="p5e3f560b13">
   <rect x="569.189766" y="47.279687" width="396" height="358.56"/>
  </clipPath>
 </defs>
</svg>
